<svg xmlns="http://www.w3.org/2000/svg" width="63" height="42" fill="none"><path fill="#B0B0B6" d="m29.822 5.406-2.783-2.023h3.44L31.542.11l1.064 3.273h3.443l-2.785 2.023 1.064 3.273-2.784-2.023-2.785 2.023 1.063-3.273ZM55.91 11.57c-1.646.431-2.854 1.097-4.3 2.028-1.327.853-3.323 2.716-5.31 5.228-1.558 1.971-3.341 3.276-4.496 3.489 0 0 1.422-1.255 2.346-2.472 1.198-1.576 3.06-4.49 6.693-6.77 2.835-1.78 5.173-2.074 6.115-2.129.962-.055 2.226.066 2.467.341 0 0-1.817-.16-3.515.285Zm-15.524 6.664s.271-.828 1.044-1.593c.578-.572 1.123-.72 1.194-.52 0 0-.397.29-.93.75-.488.424-1.309 1.363-1.309 1.363Zm1.625-3.539c.667-.49 1.033-.582 1.132-.41.099.172-.085.42-.758.885a59.942 59.942 0 0 1-1.753 1.158s.196-.762 1.379-1.633Zm2.407-1.1c.623-.468.995-.511 1.082-.347.086.165-.096.392-.747.806-.76.486-1.824 1.311-1.824 1.311s.54-1.058 1.49-1.77Zm2.488-1.14c.657-.424 1.03-.443 1.104-.272.074.17-.126.384-.804.754-.795.432-1.73 1.055-1.73 1.055s.43-.891 1.43-1.537Zm-1.18 2.952s.451-.913 1.47-1.677c.762-.572 1.415-.659 1.463-.419 0 0-.507.274-1.197.724-.632.413-1.736 1.372-1.736 1.372Zm-2.717 1.314s.391-.895 1.333-1.67c.704-.582 1.326-.693 1.384-.464 0 0-.473.284-1.114.745-.588.423-1.603 1.39-1.603 1.39Zm1.762-.474c.728-.757 1.169-.638 1.238-.413 0 0-.46.304-1.078.792-.567.447-1.079.994-1.079.994s.38-.814.919-1.373Zm5.444-4.943c.796-.316 1.14-.225 1.12-.04-.02.178-.078.235-.884.507a17.638 17.638 0 0 0-2.132.904s.682-.889 1.896-1.371Zm3.23-.59c.824-.205 1.156-.114 1.12.03-.037.14-.1.182-.929.351-1.117.229-2.207.595-2.207.595s.764-.663 2.017-.976ZM42.318 25.898c.157-.084.314-.172.474-.26.946-.527 2.206-1.299 2.972-1.365.476-.042.681.146.734.34.046.169.058.325-.055.694a1.866 1.866 0 0 1-.276.54s-.078-.438-.46-.388c-.545.072-.97.643-1.6 1.105-.517.378-1.017.628-1.247.75 0 0 .164.087.5-.042.361-.138.875-.409 1.173-.642-.007.25.123.441.378.392.26-.051.444-.271.52-.543.056-.205.02-.582-.02-.565.419-.203.635.184.635.48 0 .096-.011.319-.052.38 0 0 .111-.028.26-.217.148-.19.36-.517.52-1.116.093-.349.086-.545.058-.705.264-.16.646-.395.891-.487.653-.243 1.173-.236 1.365.176.126.27.066.456.066.456-.059-.204-.213-.277-.398-.266-.472.027-.981.626-1.344 1.145-.322.46-.42.732-.784 1.124-.099.105-.337.262-.295.41.054.19.276-.018.443-.13.249-.166.626-.33.838-.433.671-.324.868-.667.868-.667.036.144-.03.8-.666 1.41-.792.761-2.774 1.665-3.377 2.052-.25.16-.488.33-.715.505-.707.544-1.31 1.13-1.898 1.607-1 .813-2.666 1.865-4.453 2.384-1.091.318-1.189-.006-1.195-.014.343-.074 1.231-.272 2.708-1.02 2.058-1.044 3.478-2.278 4.391-3.067l.316-.274c.655-.575.849-.775.941-.873.513-.547.7-.816.704-.942-.173.142-.772.72-1.304 1.173a34.783 34.783 0 0 1-1.995 1.573c-1.522.904-4.06 1.616-5.673 1.56a25.389 25.389 0 0 1-1.405-.153c.754-.232 1.5-.6 1.967-.851.752-.051 2.077-.175 2.565-.56l.057-.044c-.94.186-1.996.35-2.6.304-.837-.09-1.894-.363-1.894-.363.313-.03 1.04-.347 1.598-.608.627.038 2.058-.252 2.144-.278l.062-.037c-.602.022-1.335-.037-1.72-.074-.702-.135-1.558-.503-1.558-.503a6.91 6.91 0 0 0 1.396-.494c.637.013 1.538-.103 1.615-.126l.062-.035c-.429-.017-1.229-.127-1.5-.165-.575-.216-1.276-.64-1.276-.64a8.696 8.696 0 0 0 1.374-.373c.623.065 1.475.073 1.555.057l.038-.03c-.394-.036-1.095-.188-1.413-.26-.827-.628-1.108-1.191-1.108-1.191s2.365.892 3.526.905c1.033.016 1.796-.31 2.567-.721Zm.506 8.664.42.624.077.104a2.216 2.216 0 1 1 2.92 3.212c.031.029.06.056.088.08l.549.487c.967.86 1.877 1.566 2.567 2.07h-5.106a2.442 2.442 0 0 0-.603-.983 2.438 2.438 0 0 0-1.733-.717c-.654 0-1.27.255-1.734.717-.28.28-.486.617-.603.984l-4.197-.002a8.079 8.079 0 0 0 1.583-2.035c.409-.763.657-1.566.737-2.388a6.336 6.336 0 0 0-.154-2.086c.203-.06.404-.13.605-.203l.147-.054a7.017 7.017 0 0 1-.64 5.102c-.159.296-.34.59-.543.872h1.942a3.243 3.243 0 0 1 5.705 0l2.281.001a32.337 32.337 0 0 1-2.296-2.112l-.266-.27.376.044a1.424 1.424 0 1 0 .16-2.835c-.784 0-1.422.638-1.422 1.422l.009.407-.245-.292c-1.062-1.268-1.886-2.533-2.468-3.773l.128-.096.08-.061c.158-.125.3-.239.432-.347.321.7.722 1.412 1.204 2.128Zm-8.056-1.198a7.517 7.517 0 0 0 1.436-.604c1.263-.084 2.587-.43 3.547-.749-.442.25-.883.468-1.302.633-2.06.81-3.681.72-3.681.72Zm-1.276-6.581c-.625-.082-1.024-.28-1.238-.438 0 0 .321-.205 1.27-.012.505.103 1.055.308 1.178.41 0 0-.474.135-1.21.04Zm-1.32 1.392a1.798 1.798 0 0 1-.161-.15 4.965 4.965 0 0 1-.306-.348 13.447 13.447 0 0 1-.563-.764 37.598 37.598 0 0 1-1.041-1.608l-1.011-1.635c-.341-.544-.674-1.093-1.037-1.627l-.05.034c.32.553.61 1.127.91 1.694l.45.853c.156.282.318.558.48.837.325.555.657 1.106 1.013 1.646.178.27.362.537.561.797.087.113.177.223.275.33a6.616 6.616 0 0 1-.325-.153c-.432-.215-.967-.73-1.481-1.414-.907-1.21-2.429-4.032-2.903-4.785-.488-.772-1.86-3.124-4.657-3.124-2.895 0-5.32 1.539-6.389 2.238-1.348.882-3.185 2.402-3.328 2.52a24.575 24.575 0 0 1 2.163-1.949 19.462 19.462 0 0 1 3.005-1.997c.533-.28 1.082-.529 1.648-.732a8.595 8.595 0 0 1 1.745-.43 7.055 7.055 0 0 1 1.797-.01c.595.077 1.183.247 1.706.552l.032-.052c-.52-.328-1.114-.526-1.718-.626a7.033 7.033 0 0 0-1.837-.04 8.736 8.736 0 0 0-1.797.394c-.583.191-1.15.43-1.7.702-.274.137-.544.28-.81.432-.133.076-.262.159-.393.238l-.197.12-.191.126c-.514.332-1.01.693-1.49 1.071-.562.446-1.1.917-1.618 1.412.138-.206.33-.444.6-.712.633-.628 1.37-1.366 3.311-2.69 2.417-1.648 4.453-2.114 6.506-1.938 3.423.294 4.744 3.067 5.328 4.025.54.883 2.094 4.51 2.901 5.867.293.491.504.766.606.92a.221.221 0 0 1-.035-.024Zm-1.627 5.797c-.011.159-.029.363-.152.384l-.018-.002c-.127-.012-.258-.43-.294-.667a4.234 4.234 0 0 1-.055-.724c0-.272.092-.487.089-.48.11.104.299.385.378.813.04.23.07.42.052.676Zm-1.26-2.84c-.101.246-.184.388-.375.488-.213.11-.542-.053-.542-.053.152-.122.29-.431.356-.553.132-.249.183-.387.375-.634.218-.282.446-.393.446-.393-.097.23-.132.833-.26 1.144Zm.086 3.025c-.038.196-.086.455-.249.455-.165 0-.246-.562-.26-.87-.015-.37 0-.652.03-.905.04-.337.154-.595.147-.586.122.143.318.518.357 1.06.023.29.034.53-.025.846Zm-1.267-3.712c-.17.255-.306.405-.54.475-.267.078-.62-.167-.62-.167.202-.105.432-.428.533-.553.208-.253.298-.4.574-.64.313-.272.599-.348.599-.348-.164.242-.329.907-.546 1.233Zm.085 2.675-.204.904c-.077.204-.18.472-.341.44-.163-.032-.126-.65-.074-.986.062-.4.15-.782.233-1.05.11-.354.271-.575.264-.568.09.18.197.67.122 1.26Zm-1.19-.62c-.111.323-.212.581-.413.897-.125.196-.277.427-.44.386-.172-.043.012-.705.14-1.044.152-.404.279-.653.424-.912.191-.345.402-.533.394-.528.053.207.101.603-.105 1.202Zm-1.014-.553c-.184.336-.495.73-.69.96-.17.2-.348.313-.457.265-.181-.08.129-.694.341-1.04.255-.414.497-.735.712-.991.29-.346.498-.426.498-.426.016.237-.097.673-.404 1.232Zm.045 7.156c.392.73.925 1.414 1.583 2.035l-4.197.002a2.442 2.442 0 0 0-.603-.984 2.438 2.438 0 0 0-1.733-.717 2.44 2.44 0 0 0-1.734.717c-.28.28-.486.617-.603.984H13.637c.69-.505 1.6-1.21 2.567-2.07l.549-.487c.029-.026.057-.054.088-.08a2.217 2.217 0 1 1 2.92-3.212l.077-.105.42-.624c.665-.987 1.178-1.971 1.523-2.923l.168-.462c-.022.296.094.641.43.68.05.007.108.006.168-.004l-.02.057c-.568 1.564-1.545 3.18-2.9 4.801l-.245.292.009-.402c0-.79-.638-1.427-1.423-1.427-.784 0-1.423.638-1.423 1.422a1.424 1.424 0 0 0 1.585 1.413l.376-.043-.266.27a32.078 32.078 0 0 1-2.296 2.111h2.281a3.243 3.243 0 0 1 5.705 0h1.943a8.217 8.217 0 0 1-.544-.873c-.958-1.785-1.117-3.764-.46-5.723l.019-.057a2.54 2.54 0 0 0 .54-.388c.27-.257.355-.36.355-.36s-.104.301-.198.64c-.042.152-.05.372-.005.553a6.49 6.49 0 0 0-.288 2.575c.08.823.328 1.626.737 2.389Zm-9.716-5.412c-.002-.023.072-.088.111-.121.25-.22.894-.592 1.723-1 .946-.464 1.608-.712 1.936-.799-.161.197-.643.605-1.675 1.148-.508.269-.946.5-1.766.74-.221.066-.324.05-.329.032Zm-1.062-.479c-.294.07-.394.061-.425.041-.006-.004-.007-.007-.007-.008-.006-.033.094-.107.158-.152.33-.242 1.55-.808 2.663-1.238 1.28-.493 2.16-.735 2.575-.803-.203.209-.844.64-2.272 1.24-.675.284-1.515.636-2.692.92Zm-.836-.75c-.366.073-.49.056-.53.027-.01-.006-.01-.012-.012-.017-.007-.044.118-.129.206-.187.416-.279 1.936-.91 3.32-1.38 1.616-.549 2.713-.8 3.213-.857-.24.24-1.041.744-2.86 1.424-.84.313-1.885.702-3.337.99Zm6.113-3.31c.047-.148.524-.529.9-.873.733-.67.863-.754 1.285-.974.424-.222.657-.19.657-.19-.157.175-.44.699-1.04 1.227-.36.318-.83.65-1.245.808-.306.117-.6.133-.557.001Zm-.312-.922c-.308.118-.6.16-.559.026.034-.102.532-.549.901-.872.69-.605.752-.665 1.113-.874.414-.24.706-.19.706-.19-.157.175-.318.573-.916 1.102-.361.319-.83.65-1.245.808Zm-1.291-.608c-.308.118-.601.16-.558.026.034-.102.54-.541.901-.872.74-.675.91-.801 1.325-1.019.424-.221.706-.189.706-.189-.204.19-.53.718-1.13 1.246-.36.319-.83.65-1.244.808Zm-1.632-.126c-.356.166-.5.166-.528.09-.035-.101.298-.364.918-1.023.772-.82 1.12-1.15 1.602-1.436.492-.29.83-.27.83-.27-.328.239-.707.843-1.375 1.524-.401.41-.968.891-1.447 1.115Zm-1.516-.17c-.154.066-.24.093-.36.116-.258.048-.17-.06-.117-.105.304-.25 1.064-1.026 1.164-1.142 1.028-1.186 1.243-1.428 1.787-1.78.425-.276.816-.31.816-.31-.315.254-.957 1.18-1.605 1.88-.39.422-1.2 1.133-1.685 1.342Zm-.957 1.11c-.533.52-.934.715-1.109.809-.174.094-.373.175-.416.1-.026-.046.04-.212.093-.3.204-.333.34-.488.548-.66.825-.678 1.393-.556 1.393-.556s-.057.166-.509.608Zm-.193-2c1.276-1.614 1.587-1.952 2.28-2.446.54-.386.994-.453.994-.453-.398.354-1.294 1.616-2.1 2.57-.485.576-1.054 1.132-1.677 1.436-.462.226-.874.248-.874.248.33-.154 1.218-1.151 1.377-1.354Zm2.205-4.076c-.408.215-.75.271-1.086.242-.385-.034-.559-.203-.559-.203.256-.095.674-.318.901-.42.424-.193.734-.365 1.29-.49.626-.143 1.036.018 1.036.018-.403.209-1.044.57-1.582.852Zm2.098-.21c.536-.133.892 0 .892 0-.344.186-.89.507-1.347.76-.348.191-.64.245-.93.227-.332-.022-.484-.164-.484-.164.219-.087.573-.285.767-.379.361-.171.626-.325 1.102-.443Zm1.87-.727c-.526.206-.95.23-1.356.148-.465-.093-.93-.41-.93-.41.428.056 1.136-.194 1.431-.278.606-.171.842-.265 1.589-.372.78-.112 1.311.11 1.311.11-.52.202-1.35.53-2.044.802Zm1.593.888c-.474.186-.857.207-1.221.134-.418-.084-.837-.39-.837-.39.384.05 1.022-.176 1.288-.252.538-.152.85-.31 1.473-.38.706-.08 1.136.147 1.136.147-.467.178-1.215.497-1.84.741Zm.995 1.041c-.43.194-.784.231-1.124.182-.39-.058-.79-.371-.79-.371.357.028.937-.212 1.18-.293.491-.166.736-.288 1.307-.377.65-.101 1.096.037 1.096.037-.425.19-1.103.566-1.67.822Zm-2.246 1.498c.262-.077.456-.15.788-.178.376-.03.601.098.601.098-.252.087-.662.243-.989.363a1.092 1.092 0 0 1-.65.05c-.22-.051-.308-.163-.308-.163.156-.034.417-.13.558-.17Zm-2.182-1.089c-.312-.027-.454-.164-.454-.164.209-.078.547-.259.732-.344.345-.157.56-.248 1.012-.352.51-.116.844.015.844.015-.33.169-.814.415-1.25.646-.331.176-.61.223-.884.2Zm1.375.263c.322-.117.483-.196.898-.258.47-.07.763.073.763.073-.31.131-.842.435-1.214.562-.321.111-.497.11-.743.07-.281-.047-.399-.18-.399-.18.194-.056.522-.204.695-.267Zm3.874.448c-.383.209-.708.268-1.027.244-.365-.026-.756-.357-.756-.357.334.001.853-.26 1.072-.35.443-.187.66-.317 1.182-.438.594-.139 1.016-.041 1.016-.041-.38.201-.981.666-1.487.942Zm.685 1.275c-.331.234-.582.364-.92.334-.378-.033-.743-.35-.743-.35.306-.033.757-.33.949-.437.388-.22.575-.363 1.042-.53.532-.19.932-.144.932-.144-.33.227-.823.82-1.26 1.127Zm.644 1.323c-.297.244-.555.398-.845.384-.38-.018-.728-.326-.728-.326.288-.055.693-.369.866-.485.352-.236.518-.385.948-.578.49-.22.872-.207.872-.207-.295.24-.722.888-1.113 1.212Zm-1.458 4.253c.337-.487.568-.754.829-1.018.347-.35.58-.417.58-.417-.004.26-.206.723-.589 1.302-.23.35-.59.753-.849.98-.215.187-.406.269-.484.17-.067-.087.23-.61.513-1.017Zm-2.105-1.097c-.3.137-.554.196-.556.023-.002-.097.487-.592.84-.962.677-.707.867-.838 1.28-1.091.409-.25.644-.234.644-.234-.187.313-.458.782-1.02 1.35-.339.343-.786.729-1.188.914Zm1.111.072c.403-.49.68-.764.986-1.016.408-.335.66-.362.66-.362-.063.235-.298.748-.768 1.322-.285.348-.665.743-1.021.95-.265.153-.453.209-.5.092-.045-.115.341-.619.643-.986Zm4.865-2.14c-.224.26-.5.956-.795 1.304-.225.265-.435.433-.69.475-.322.054-.702-.227-.702-.227.248-.094.558-.437.694-.568.275-.265.399-.424.751-.663.4-.271.742-.32.742-.32Zm-1.616.159c-.254.262-.487.424-.759.45-.34.035-.719-.287-.719-.287.267-.082.617-.419.768-.548.307-.26.448-.417.835-.643.44-.259.802-.286.802-.286-.253.256-.592.968-.927 1.314Zm-14.35-.183a3.04 3.04 0 0 1-1.05.331c.392-.199 1.294-1.254 1.481-1.505 1.49-2.005 2.236-2.779 3.057-3.403.64-.487 1.123-.532 1.123-.532-.47.442-1.853 2.307-2.796 3.494-.567.716-1.07 1.224-1.815 1.615Zm.17 1.097c-.634.658-1.343 1.219-1.548 1.351-.205.131-.438.29-.497.202-.036-.055.033-.205.1-.313.25-.402.454-.698.913-1.153 1.056-1.042 1.928-1.116 1.928-1.116s-.035.136-.896 1.03ZM9.2 30.661c-.598.758-1.285 1.425-1.488 1.585-.203.16-.43.352-.502.266-.044-.053.017-.177.077-.296.221-.448.44-.746.874-1.277.904-1.107 2.014-1.716 2.014-1.716s-.163.405-.975 1.437Zm-2.634 1.255c-.718 1.125-1.898 2.257-2.294 2.6-.248.214-.457.325-.493.32 0 0-.001-.006.001-.018.019-.08.141-.26.24-.404.022-.034.045-.065.063-.094l.02-.031c.604-.906 1.069-1.596 1.31-1.942 1.219-1.747 1.906-2.226 2.107-2.338-.037.18-.205.734-.954 1.907Zm1.92-3.1c.627-.892 1.076-1.477 2.466-2.98 1.611-1.74 2.936-2.652 3.661-2.946-.175.184-.307.375-.531.698-.239.344-.564.813-1.147 1.577-1.205 1.577-2.34 2.8-3.473 3.738-.309.257-1.133.939-1.407.91-.023-.002-.04-.01-.053-.024-.024-.032-.063-.194.485-.973Zm26.068-3.405c.502.12 1.046.344 1.166.449 0 0-.479.118-1.21 0-.623-.102-1.015-.314-1.225-.479.001 0 .329-.194 1.27.03Zm-2.302-6.95-.71-2.078-.71 2.078c-.082.241-.605 1.801-1.286 3.83a25.918 25.918 0 0 0-.435-.916 2.557 2.557 0 0 1-.054-.103l2.486-7.406 3.794 11.309-.181-.046c-.247-.063-.488-.12-.722-.17-1.076-3.205-2.066-6.158-2.182-6.498Zm-.935 6.395a4.32 4.32 0 0 0-.504.141 63.652 63.652 0 0 1-.81-1.704c.835-2.492 1.493-4.46 1.538-4.59l1.148 3.423c-.206.32-.876 1.405-1.374 2.73h.002Zm-3.723-9.167.216-.588.071-.197a2.18 2.18 0 0 1-1.34-3.777l-.306-.47-.07-.108h3.426c.294.813 1.049 1.46 1.951 1.46.902 0 1.659-.646 1.953-1.46h3.426l-.07.109-.307.47a2.18 2.18 0 0 1-1.34 3.777l.072.196.215.588c1.053 2.889 2.567 7.038 3.814 10.462-.222-.03-.466-.075-.725-.13l-.182-.04-4.288-11.76-.038-.105h.994a1.388 1.388 0 0 0 0-2.774H33.99c-.54.902-1.475 1.461-2.449 1.461-.974 0-1.908-.559-2.448-1.46H28.02a1.388 1.388 0 0 0 0 2.773h.994l-.039.105-1.655 4.538-.122-.12a7.37 7.37 0 0 0-.512-.457c.324-.895.632-1.738.907-2.493Zm33.977-4.037c-1.212-.77-2.647-.98-3.172-1.02.234-.223-.126-.381-.559-.428-1.032-.111-2.185.074-2.866.26.098-.204-.136-.445-1.024-.324-.28.038-1.331.268-2.284.713.038-.278-.326-.378-1.066-.174-.398.11-1.494.609-2.223 1.25.117-.185-.2-.474-.889-.186-.668.28-1.174.668-1.719 1.189-.038-.204-.156-.406-.779-.128-.684.307-1.497 1.093-1.497 1.093 0-.315-.392-.262-.826-.048-.77.38-1.307.898-1.587 1.237 0-.241-.205-.373-.584-.15-.66.389-1.361 1.375-1.361 1.375 0-.352-.267-.31-.662-.056-.563.362-1.482 1.362-1.482 1.362-.283-.775-.55-1.513-.797-2.187a2.913 2.913 0 0 0 1.801-2.705c0-.602-.178-1.171-.517-1.66l.83-1.269h-5.431c0 .765-.582 1.459-1.334 1.459-.75 0-1.333-.694-1.333-1.459h-5.432l.83 1.268a2.894 2.894 0 0 0-.517 1.661c0 1.2.711 2.253 1.8 2.705l-.839 2.3c-.88-.548-1.979-.932-3.343-.932-3.898 0-7.196 2.893-8.42 3.954-.427.37-.963.913-1.568 1.568l.004-.004a36.598 36.598 0 0 0-.198.216c-1.217 1.269-4.2 3.388-6.231 4.392-.56.276-1.585.81-2.264 1.013a2.383 2.383 0 0 1-.227.058c-.133.028-.145.156-.044.22a.741.741 0 0 0 .292.09c.508.065 1.459-.297 2.17-.645.772-.377 1.888-1.064 1.888-1.064l.032.035s-1.849 1.662-2.835 2.416c-.986.753-1.986 1.564-3.443 2.255-.313.148-.563.199-.557.25.015.127.272.146.595.072.76-.174 1.308-.46 2.006-.875 1.296-.766 2.463-1.859 2.697-2.02l.03.044s-1.795 2.097-2.497 2.76a30.38 30.38 0 0 1-3.009 2.477c-.281.2-.443.314-.353.403.074.074.162.039.4-.028.45-.128 1.334-.641 2.666-1.741a23.05 23.05 0 0 0 2.668-2.638s.14-.192.33-.458c-1.445 2.117-3.524 5.198-3.785 5.574-.257.37-.487.671-.541.82-.055.149.02.24.23.222.311-.027 1.042-.402 1.987-1.3.902-.857 2.11-2.613 2.11-2.613l.058.034s-.244.508-.325.725c-.076.2-.186.436-.013.5.24.09.698-.212 1.083-.53.918-.755 2.19-2.485 2.19-2.485l.039.037s-.175.342-.255.558c-.082.217-.095.46.109.487.202.027.59-.173 1.191-.623.703-.527 2.22-2.22 2.22-2.22l.04.041s-.181.302-.3.555c-.101.218-.081.443.07.487.24.07.619-.023 1.53-.647.959-.657 1.572-1.516 1.855-1.804l.04.027s-.185.295-.244.469c-.062.178-.1.403.081.425.255.031.684-.15 1.204-.493.472-.31.833-.586.833-.586l.036.042c-.14.16-.273.372-.363.522-.07.114-.17.321-.034.43.135.109.46.018.857-.131.429-.162 1.164-.596 1.164-.596l.048.046a7.994 7.994 0 0 0-.603.605c-.134.162-.247.381-.179.516s.337.14.717.063c.465-.096 1.264-.51 1.264-.51s-.623.486-.898.746c-.224.211-.343.5-.254.632.025.035.063.06.11.076a7.57 7.57 0 0 1-.087.026c-1.178.345-3.82 1.132-5.896 2.112-1.26.595-1.406.875-1.316 1.093.068.163.649.106 1.068.038.419-.069 1.36-.301 1.472-.347l.043.05s-.633.26-.853.394c-.22.133-.553.344-.492.54.062.194.83.036 1.18-.04.572-.122 1.279-.414 1.348-.458l.03.05s-.993.564-.941.907c.026.169.378.138.738.065a2.962 2.962 0 0 0-.699 4.43c-1.972 1.752-3.705 2.853-3.724 2.864l-.815.516h8.208a1.705 1.705 0 0 1 3.409 0l7.093-.003h-.018c-2.613-1.55-4.648-4.26-3.532-7.624.119-.092.23-.2.316-.29.304-.317.632-.977.632-.977l.064.038c-.023.198-.143.753-.163 1.08-.017.27-.018.816.351.866.219.028.533-.213.724-.67l.485.204c.044.291.181.59.452.59.227 0 .354-.192.4-.425.39.09 2.217.482 4.205.482 1.037 0 2.085-.102 3.116-.34.73 3.105-1.221 5.604-3.69 7.068h-.017l7.093.002a1.705 1.705 0 0 1 3.41 0h8.207l-.814-.515c-.019-.011-1.752-1.113-3.724-2.865a2.936 2.936 0 0 0 .702-1.916 2.968 2.968 0 0 0-4.633-2.452 13.435 13.435 0 0 1-1.22-2.211c.982-.848 1.14-1.123 2.13-1.84 1.183-.86 2.498-1.386 3.43-2.183.492-.42.803-1.02.894-1.42.143-.636-.118-.955-.118-.955-.091.165-.175.453-.688.722-.343.18-.484.235-.484.235.26-.334.26-.334.538-.746.365-.54.663-.758.879-.758.337 0 .31.431.31.431.246-.137.36-.47.36-.89.002-.23-.172-.751-.956-.775-.745-.022-1.599.593-1.737.691-.052-.326-.42-.616-.917-.56-.488.054-.972.097-2.1.763-.657.388-2.109 1.43-3.65 1.537.017-.004 1.662-.512 3.405-2.382 2.215-2.377 4.117-6.137 7.288-8.586 1.855-1.434 3.309-2.005 4.593-2.06 1.478-.065 1.537.37 1.673.296.136-.074.161-.334-.33-.546-1.013-.438-2.57-.141-2.57-.141.273-.26 1.363-.65 2.57-.576.97.059 1.693.278 2.12.724.142.148.195.315.331.278.136-.037.168-.293.039-.483-.607-.893-2.375-.947-2.375-.947.74-.148 1.694.019 2.2.167.505.148.845.29 1.265.576.203.138.327.316.478.278.221-.056.074-.338-.109-.52-.467-.465-1.304-.743-1.304-.743.292-.019.874.042 1.576.357.779.348 1.106.737 1.226.665.215-.126-.212-.627-.621-.887Z"></path></svg>