<svg width="70" height="32" viewBox="0 0 70 32" fill="none" xmlns="http://www.w3.org/2000/svg"><path fill-rule="evenodd" clip-rule="evenodd" d="M16.8932 7.68358L34.8609 0L52.828 7.68358H64.0316V10.8184H69.6428V31.8869H0.0714111V10.8184H5.68553V7.68358H16.8932ZM51.4511 16.6931L51.4516 13.287L51.4519 13.2873L54.1183 13.2881L53.6582 16.6971L51.4511 16.6931ZM63.8701 15.3414C63.0759 15.3414 62.4048 15.9585 62.4048 16.7963C62.4048 17.6398 63.0759 18.2602 63.8701 18.2602C64.656 18.2602 65.3282 17.6398 65.3282 16.7963C65.3282 15.9585 64.656 15.3414 63.8701 15.3414ZM63.8701 18.0161C64.5224 18.0161 65.0363 17.5004 65.0363 16.7963C65.0363 16.1055 64.5224 15.5854 63.8701 15.5854C63.2095 15.5854 62.6952 16.1055 62.6952 16.7963C62.6952 17.5004 63.2095 18.0161 63.8701 18.0161ZM63.3139 17.6398H63.5652V16.9111H63.8556L64.2942 17.6398H64.576L64.1041 16.9006C64.3481 16.8699 64.5325 16.7389 64.5325 16.4377C64.5325 16.1055 64.3377 15.9585 63.9472 15.9585H63.3139V17.6398ZM64.271 16.4186C64.271 16.6803 64.0794 16.6963 63.8672 16.6963H63.5652V16.1748H63.9081C64.0823 16.1748 64.271 16.213 64.271 16.4186ZM11.1692 13.2867V24.8941H16.0894V27.6581H7.98951V13.2867H11.1692ZM43.1799 27.6584H50.749V24.8906H46.3755V23.087H50.749V20.4224H46.3755V18.6089H50.749V15.8292H43.1799V27.6584ZM26.5428 26.1478C26.5424 26.5488 26.3827 26.9332 26.099 27.2166C25.8152 27.4999 25.4306 27.6589 25.0296 27.6587H18.887C18.4862 27.6587 18.1017 27.4996 17.8181 27.2163C17.5346 26.933 17.3751 26.5487 17.3747 26.1478V17.3404C17.3749 16.9395 17.5344 16.5551 17.818 16.2718C18.1016 15.9885 18.4861 15.8294 18.887 15.8295H25.0296C25.8656 15.8295 26.5428 16.5058 26.5428 17.3404V26.1478ZM23.357 18.6092H20.5605V24.8793H23.3573V18.6092H23.357ZM38.176 15.8298V24.8941H36.2561V15.8298H33.4593V24.8941H31.5394V15.8298H28.3536V26.1473C28.3536 26.9818 29.0311 27.659 29.8674 27.659H33.6327C34.2672 27.659 34.8577 27.2213 34.8577 26.5879C34.8577 27.2213 35.4482 27.659 36.0827 27.659H39.8492C40.2501 27.659 40.6347 27.4997 40.9183 27.2162C41.2019 26.9328 41.3613 26.5482 41.3615 26.1473V15.8298H38.176ZM61.9158 23.1893L61.9149 23.1884H61.9143C62.1474 23.6807 62.2575 24.1769 62.2419 24.6613C62.1853 26.4137 60.902 27.4439 60.8884 27.4535C60.3289 27.9068 59.4637 28.1376 58.3175 28.1376H58.3169C56.2167 28.1376 53.8507 27.3552 53.8284 27.3477L53.7884 27.334V24.5028L53.8663 24.532C53.8907 24.5419 56.3347 25.4504 57.54 25.6176L57.5704 25.6217C57.6557 25.6332 57.7416 25.6387 57.8276 25.6382C58.4543 25.6382 58.9503 25.3472 59.0622 24.9144C59.1706 24.497 58.9094 24.0271 58.3966 23.7198L58.392 23.7166C57.9389 23.4479 57.4545 23.2282 56.9869 23.018L56.9846 23.0171C55.85 22.5046 54.6777 21.9753 53.9464 20.7085C53.3773 19.5867 53.4512 18.0836 54.1209 17.134C54.918 15.9782 56.1419 15.3927 57.7577 15.3927C57.9496 15.3927 58.1493 15.4005 58.3511 15.4179C60.106 15.6689 61.8436 16.7624 61.8613 16.7742L61.8876 16.7908V19.3727L61.8076 19.3397C61.2313 19.0952 60.6537 18.8536 60.075 18.6147C59.6385 18.435 58.7963 18.1323 58.0557 18.1323C57.5928 18.1323 57.242 18.2521 57.013 18.4845C56.7959 18.6704 56.7167 18.9759 56.7501 19.1704C56.8713 19.8626 57.9586 20.2891 58.3221 20.4317L58.3256 20.4331L58.3899 20.4575C60.2066 21.183 61.3348 22.0257 61.8386 23.0345L61.8584 23.0734L61.8963 23.1484L61.9158 23.1893Z" fill="#B0B0B6"></path></svg>