<svg xmlns="http://www.w3.org/2000/svg" width="90" height="23" fill="none"><path fill="#B0B0B6" d="M85.786 3.95c-1.828 0-3.256 1.004-3.84 2.576l-.422-2.267h-4.555v13.293h5.507V9.798c0-1.7.584-2.55 1.51-2.55 1.112 0 1.562 1.494 1.006 3.606l5.003-1.983c.105-3.066-1.482-4.92-4.209-4.92Zm-18.43 2.191c1.22 0 2.172 1.288 2.648 2.783l-3.653 1.982c-.292-.979-.476-1.957-.476-2.705 0-1.312.555-2.06 1.482-2.06Zm4.476 5.744c.184 1.649-.423 3.477-1.828 3.477-1.19 0-2.276-1.287-3.018-2.884l8.366-3.298c-.61-3.013-3.364-5.28-7.122-5.28-4.024 0-7.44 2.602-7.44 7.006 0 4.2 3.098 7.007 7.706 7.007 4.713 0 6.938-2.962 7.388-5.617l-4.052-.41ZM59.6 13.457c-.476 1.288-1.244 2.087-2.092 2.087-.714 0-1.165-.439-1.165-1.47V7.017h3.654l.9-2.757h-4.554V.653h-1.51c-.768 2.214-2.621 3.76-4.5 3.786.317.978.422 1.778.422 3.038v6.028c0 2.834 2.066 4.406 5.456 4.406 2.409 0 4.29-.8 5.11-1.983L59.6 13.457Zm-10.063-.31c0-2.524-1.615-3.606-3.892-4.198l-3.601-.927c-.61-.155-.901-.516-.901-.902 0-.67.714-1.056 2.038-1.056 1.774 0 3.31.825 3.945 2.421l2.117-2.498C47.945 4.802 45.457 3.9 42.703 3.9c-3.84 0-6.488 1.803-6.488 4.688 0 2.087 1.378 3.452 4.29 4.199l2.914.747c.663.18 1.006.54 1.006 1.056 0 .618-.635 1.056-1.986 1.056-2.197 0-4.555-1.158-5.535-3.22l-1.35 3.452c1.563 1.235 4.237 2.035 6.99 2.035 4.292 0 6.993-1.93 6.993-4.765Zm-19.513 1.289L27.032 4.26h-5.904l4.37 13.086h3.468c-.768 1.34-1.907 1.933-3.601 1.933-1.431 0-2.622-.464-3.469-1.186v3.582c.742.567 1.88.901 3.31.901 3.044 0 4.687-1.313 5.983-4.662L36.485 4.26H33.07l-3.046 10.175Zm-19.487 1.08c2.092 0 3.628-1.493 3.628-3.554 0-2.06-1.536-3.554-3.628-3.554-2.091 0-3.627 1.494-3.627 3.554 0 2.06 1.536 3.555 3.627 3.555Zm0-15.016c6.17 0 10.537 3.606 10.537 8.707 0 5.101-4.37 8.708-10.537 8.708C4.37 17.915 0 14.308 0 9.207-.002 4.107 4.368.5 10.537.5Z"></path></svg>