<svg xmlns="http://www.w3.org/2000/svg" width="112" height="34" fill="none"><path fill="#fff" d="M31.777 17.187c0 8.48-6.867 15.347-15.346 15.347-8.48 0-15.347-6.867-15.347-15.347 0-8.479 6.867-15.37 15.323-15.37 8.48 0 15.37 6.891 15.37 15.37Z"></path><path fill="#B0B0B6" d="M105.287 23.284c-1.075-.398-1.332-.584-1.635-1.262L96.13 7.05H93l-8.41 15.253c-.303.584-.583.701-1.284.958l-1.915.584v2.243h9.343v-2.29l-2.079-.537c-.444-.117-.42-.397-.327-.607 0 0 .28-.514.678-1.285h7.825c.42.794.514.934.654 1.215.187.42-.187.607-.678.747l-1.868.514v2.243h11.983V23.89c.023 0-1.635-.607-1.635-.607Zm-15.324-3.738c1.215-2.336 2.944-5.653 3.06-5.886.117.28 1.682 3.527 2.85 5.886h-5.91ZM81.087 18.962l1.846-.537V16.09H70.879v2.336l1.846.537c1.308.398 1.378.561 1.378 1.612v3.177c-.654.14-1.915.14-2.733.023-4.368-.63-5.56-3.854-5.56-7.218 0-1.892.631-3.62 2.08-4.998 1.027-1.005 2.616-1.892 4.998-1.822 1.051.047 2.243.537 2.663.817 1.191.841 1.472 1.822 1.799 3.014h3.083l-.023-4.742s-3.107-2.126-8.503-2.126c-4.274 0-12.683 1.775-12.683 10.138 0 5.139 4.32 9.133 11.819 9.507 5.162.257 8.666-1.262 8.666-1.262v-4.508c.023-1.05.07-1.191 1.378-1.612ZM51.282 7.19c-.911-.094-3.504-.117-3.504-.117H37.173v2.312l1.775.56c1.449.468 1.449.608 1.449 1.66v10.043c0 1.075 0 1.122-1.449 1.589l-1.775.514v2.336h12.1V23.75l-1.776-.514c-1.448-.467-1.448-.514-1.448-1.588v-2.406h2.873c2.64-.047 4.766-.21 6.681-1.285 1.822-1.028 2.803-2.943 2.803-4.929.023-3.2-2.523-5.372-7.124-5.84Zm.443 8.409c-.327.303-1.097.677-1.705.84-1.682.421-3.854.258-3.947.258V9.549c1.425 0 3.924-.21 5.536.934.794.56 1.261 1.472 1.284 2.64.024.817-.28 1.728-1.168 2.476ZM16.617.883C7.717.883.5 8.1.5 17c0 8.877 7.218 16.118 16.117 16.118 8.877 0 16.118-7.218 16.118-16.118C32.712 8.1 25.494.883 16.617.883Z"></path><path fill="#B0B0B6" d="M16.594 2.354c-8.082 0-14.646 6.588-14.646 14.67s6.587 14.669 14.67 14.669c8.082 0 14.669-6.587 14.669-14.67C31.263 8.943 24.7 2.355 16.594 2.355Z"></path><path fill="#B0B0B6" d="M16.617 27.768c5.91 0 10.722-4.811 10.722-10.721S22.527 6.349 16.618 6.349c-5.91 0-10.699 4.812-10.699 10.698-.023 5.91 4.789 10.721 10.698 10.721Z"></path><path fill="#B0B0B6" d="M16.547 7.12a2.024 2.024 0 0 0-2.008 2.008c0 1.098.91 2.01 2.008 2.01a2.024 2.024 0 0 0 2.01-2.01 2.009 2.009 0 0 0-2.01-2.008Zm-.98 2.943c-.117 0-.21-.094-.281-.187a.574.574 0 0 1-.117-.35c.187.093.397.186.63.233 0 .14-.07.304-.233.304Zm1.354.093c-.093.094-.21.14-.397.14a.551.551 0 0 1-.374-.14.508.508 0 0 1-.163-.373c.327.046.77.046 1.098 0 0 .163-.07.28-.164.373Zm.888-.28c-.07.093-.14.187-.28.187a.212.212 0 0 1-.164-.07c-.07-.047-.093-.14-.093-.257.233-.047.443-.117.63-.234a.503.503 0 0 1-.093.374Zm.093-.35c0-.094-.023-.164-.07-.21-.047-.047-.093-.094-.187-.117a.315.315 0 0 0-.28.186c-.07.094-.093.234-.093.374-.047 0-.117.024-.187.024 0-.164-.07-.28-.164-.374-.093-.094-.21-.14-.397-.14-.164 0-.28.07-.374.14a.508.508 0 0 0-.163.374c-.07 0-.117-.024-.187-.024 0-.233-.094-.42-.234-.514-.093-.046-.21-.046-.28.024a.335.335 0 0 0-.117.257s-.257-.21-.303-.28v-.118a1.69 1.69 0 0 1 1.681-1.681c.935 0 1.682.747 1.682 1.681v.07c-.046.07-.14.187-.327.328ZM16.524 8.31c-.164 0-.28.07-.374.163a.424.424 0 0 0-.14.327c.327.047.724.024 1.051 0a.614.614 0 0 0-.163-.35.551.551 0 0 0-.374-.14Zm-.864.023a.31.31 0 0 0-.257.07.557.557 0 0 0-.14.257c.187.047.397.094.607.117 0-.187-.047-.397-.21-.444Zm1.822-.023c-.187.023-.28.233-.234.467.21-.023.42-.07.607-.117-.023-.093-.046-.163-.093-.21-.07-.07-.163-.14-.28-.14ZM14.515 13.987l-3.153-4.602s-.327-.046-.63.164a.876.876 0 0 0-.375.514l3.387 4.414c.234-.186.49-.35.771-.49Zm5.14.28 3.246-4.204s-.07-.327-.374-.514c-.303-.187-.63-.164-.63-.164l-3.084 4.485c.467.164.748.35.794.374l.047.023Zm-7.289 9.017c-.14-.07-.35-.164-.747-.234-.444-.093-.584-.07-.794-.07-.678.047-1.098.397-1.122.397l-.07.07.024.094c.07.28.257.934.584 1.027.023 0 .654.14 1.12.14.772.024 1.029-.14 1.075-.163l.024-.023 2.64-4.228-.421-.14c-.631.934-2.173 2.966-2.313 3.13Zm11.166.116c-.024-.023-.42-.35-1.122-.397-.21-.023-.35-.023-.794.07-.397.094-.607.164-.747.234-.117-.163-1.495-1.985-2.22-2.943-.14.046-.303.07-.466.093l2.569 4.088.023.023c.024.024.304.164 1.075.164.49 0 1.098-.14 1.121-.14.327-.094.514-.748.584-1.028l.023-.093-.046-.07ZM17.131 13.52c.234-.864.678-1.565.678-1.565v-.444c-1.355.094-2.546 0-2.546 0v.444s.42.7.677 1.612c.28-.047.56-.07.864-.07.117.023.234.023.327.023ZM14.585 25.76v-1.425h-.163l-.654.397v.21l.327-.187h.023v1.005c0 .14 0 .14-.164.187l-.186.046v.164H14.912v-.164l-.233-.07c-.094-.023-.094-.023-.094-.163ZM17.505 25.76v-1.425h-.163l-.654.397v.21l.327-.187h.023v1.005c0 .14 0 .14-.164.187l-.186.046v.164H17.831v-.164l-.233-.07c-.094-.023-.094-.023-.094-.163ZM15.777 24.358c-.444 0-.701.21-.701.584 0 .327.21.538.56.538.14 0 .257-.047.374-.094-.023.35-.257.584-.584.584-.07 0-.14-.023-.233-.047l-.047-.023-.07.187.046.023c.14.07.28.094.42.094.562 0 .935-.42.935-1.075.024-.49-.233-.77-.7-.77Zm.233.795c-.093.046-.14.07-.21.07-.117 0-.234-.047-.234-.35 0-.14.024-.304.21-.304.164 0 .234.187.234.537v.047ZM18.837 25.082c-.14 0-.257.047-.374.093.046-.373.233-.607.584-.607.07 0 .14 0 .233.047l.047.023.07-.163-.047-.024a1.36 1.36 0 0 0-.443-.07c-.561 0-.935.42-.935 1.075 0 .49.257.747.748.747.42 0 .677-.233.677-.584-.023-.327-.233-.537-.56-.537Zm-.14.911c-.117 0-.258-.07-.258-.537v-.047c.07-.047.14-.07.21-.07.094 0 .234.023.234.327 0 .21-.046.327-.187.327Z"></path><path fill="#fff" d="M16.594 5.741C10.381 5.741 5.335 10.787 5.335 17s5.046 11.259 11.26 11.259c6.213 0 11.258-5.046 11.258-11.259.023-6.19-5.046-11.259-11.259-11.259Zm.023 22.027c-5.91 0-10.698-4.812-10.698-10.721-.023-5.887 4.789-10.698 10.698-10.698 5.91 0 10.722 4.811 10.722 10.698-.023 5.91-4.812 10.721-10.721 10.721Z"></path><path fill="#fff" d="M16.617 1.747C8.208 1.747 1.364 8.591 1.364 17c0 8.41 6.844 15.253 15.253 15.253 8.41 0 15.254-6.844 15.254-15.253 0-8.409-6.844-15.253-15.253-15.253Zm-.023 29.946c-8.082 0-14.669-6.587-14.669-14.67 0-8.081 6.587-14.669 14.67-14.669 8.081 0 14.668 6.588 14.668 14.67S24.7 31.693 16.594 31.693Z"></path><path fill="#fff" d="M9.727 26.998a.827.827 0 0 0-1.168.21.81.81 0 0 0 .233 1.145c.42.28.911.163 1.168-.21.28-.374.187-.865-.233-1.145Zm-.047.958c-.164.233-.444.303-.677.14a.47.47 0 0 1-.117-.678c.163-.233.444-.303.677-.14.21.14.257.444.117.678ZM10.147 29.146l.304.14.28-.56.678.327.14-.28-.701-.327.163-.304.771.35.14-.28-1.098-.514-.677 1.448ZM13.744 28.773l-1.004 1.425.35.07.21-.327.654.14.07.374.351.07-.327-1.705-.304-.047Zm-.257.888.327-.468.094.561-.42-.093ZM15.847 29.754l-.374-.7-.397-.024-.07 1.611h.327l.07-1.027.397.7h.023l.468-.654-.047 1.028.35.024.094-1.589-.397-.023-.444.654ZM17.669 30.338l-.047-.327.747-.07-.023-.304-.747.07-.024-.326.841-.094-.023-.304-1.192.117.14 1.589 1.215-.117-.023-.304-.864.07ZM20.285 29.1a.664.664 0 0 0-.21-.327c-.117-.07-.304-.093-.49-.046l-.702.163.374 1.542.35-.094-.116-.49.257-.07.443.42.398-.093-.514-.468c.163-.093.256-.28.21-.537Zm-.56.397-.351.094-.117-.444.327-.093c.164-.047.28 0 .327.163.047.117-.023.234-.187.28ZM20.98 28.292l-.329.122.55 1.49.329-.122-.55-1.49ZM22.784 28.89c-.233.116-.514 0-.63-.234-.117-.234-.047-.537.186-.654a.58.58 0 0 1 .444-.023l.094-.328c-.187-.07-.398-.07-.678.07-.444.21-.584.701-.373 1.122.21.397.677.584 1.097.35.28-.14.397-.327.444-.56l-.303-.094a.578.578 0 0 1-.28.35ZM23.555 26.904l.374 1.705.28-.21-.093-.374.537-.397.327.21.304-.21-1.495-.91-.234.186Zm.864.537-.35.257-.14-.537.49.28ZM6.643 24.779l-.163-.21c-.21-.28-.537-.397-.841-.164-.257.187-.304.514-.07.818l.397.514 1.285-.958-.21-.304-.398.304Zm-.63.49-.164-.21c-.117-.14-.117-.28.023-.374.117-.093.257-.07.374.07l.164.234-.397.28ZM6.06 23.05l-.444.257-.14-.233.28-.538-.187-.397-.304.608a.522.522 0 0 0-.607-.07.538.538 0 0 0-.257.303c-.047.14-.023.304.093.49l.35.631 1.402-.77-.187-.28Zm-1.122.607-.163-.303c-.094-.14-.07-.28.07-.35.117-.07.257-.024.327.116l.163.304-.397.233ZM4.634 22.046c.42-.14.655-.608.491-1.075-.163-.467-.63-.677-1.051-.537-.42.14-.654.607-.49 1.074a.82.82 0 0 0 1.05.538Zm-.116-.35a.483.483 0 0 1-.631-.281.495.495 0 0 1 .304-.63.483.483 0 1 1 .327.91ZM4.658 19.313l-.607.117-.14-.748-.304.047.117.747-.328.07-.163-.864-.304.07.21 1.192 1.589-.28-.07-.351ZM4.424 16.767h-.327l.047.864-.35.023-.024-.77-.303.023.023.747-.327.024-.023-.865-.328.024.047 1.191 1.612-.047-.047-1.214ZM3.303 16.16c.327.023.42-.164.537-.468.094-.257.14-.304.234-.304.093 0 .14.094.117.257a.748.748 0 0 1-.234.444l.234.234c.187-.164.303-.42.327-.654.046-.35-.117-.608-.444-.631-.28-.023-.42.14-.537.444-.094.257-.14.327-.234.327-.07 0-.14-.094-.117-.21.024-.14.094-.257.21-.398l-.256-.21a.9.9 0 0 0-.257.56c-.047.328.14.585.42.608ZM3.537 14.384c.303.07.443-.093.607-.397.14-.233.187-.28.28-.257.094.024.117.117.094.257-.047.187-.164.304-.304.42l.187.258c.21-.14.35-.374.42-.608.094-.327-.023-.607-.35-.677-.28-.07-.42.093-.584.373-.14.257-.187.304-.28.28-.07-.023-.117-.093-.094-.233.024-.14.117-.257.257-.373l-.21-.234c-.163.117-.28.303-.35.537-.094.304.046.584.327.654ZM5.218 12.656l-1.495-.56-.116.326 1.495.56.116-.326ZM4.681 11.768c.397.21.888.07 1.121-.374.234-.444.07-.934-.35-1.144-.397-.21-.888-.07-1.121.373-.21.444-.047.935.35 1.145Zm-.046-.981c.14-.257.42-.327.677-.21a.47.47 0 0 1 .21.654c-.14.257-.42.327-.677.21a.47.47 0 0 1-.21-.654ZM6.69 9.923l-.817-.608h1.284l.187-.257-1.285-.957-.21.28.794.584H5.405l-.21.257 1.285.98.21-.28ZM7.881 8.475l-.14-.35.49-.468.351.163.28-.256-1.611-.701-.234.233.607 1.635.257-.256Zm.07-.958-.303.28-.21-.514.513.234ZM10.17 6.629l-.163-.257-.677.444-.725-1.051-.28.21.911 1.308.934-.654ZM11.011 5.274c.187.444.631.63 1.098.444.28-.117.444-.304.537-.49l-.256-.655-.655.257.117.28.327-.14.094.21a.638.638 0 0 1-.28.211c-.258.117-.538-.023-.631-.28-.094-.257 0-.538.233-.631.164-.07.304-.047.444 0l.117-.327c-.21-.07-.397-.07-.654.023a.844.844 0 0 0-.49 1.098ZM13.02 4.503c.094.444.514.725 1.005.631a.809.809 0 0 0 .654-.981c-.094-.444-.514-.724-1.005-.63a.809.809 0 0 0-.654.98Zm.724-.677c.28-.07.514.117.584.397.047.257-.093.537-.373.584-.28.07-.514-.117-.584-.397a.496.496 0 0 1 .373-.584ZM16.524 4.83l-.023-.326-.795.046-.07-1.284-.35.023.07 1.612 1.168-.07ZM17.388 4.247l.771.07.024-.327-.771-.07.023-.327.864.07.024-.327-1.215-.094-.117 1.589.35.046.047-.63ZM19.934 4.97l-.84-.186.07-.327.747.163.07-.304-.747-.163.07-.327.84.21.07-.327-1.19-.257-.351 1.565 1.191.257.07-.304ZM20.892 5.087l.257.094.14.607.374.14-.164-.677c.21 0 .398-.093.491-.327a.58.58 0 0 0 0-.397.656.656 0 0 0-.374-.327l-.677-.257-.584 1.495.327.117.21-.468Zm.28-.724.327.117c.164.07.234.164.164.304-.047.117-.164.163-.327.117l-.327-.14.163-.398ZM22.574 6.465c.303.164.607.14.747-.14.14-.233.047-.443-.21-.677-.21-.187-.257-.257-.187-.35.047-.07.14-.094.257-.024.117.07.21.187.28.35l.28-.14a.898.898 0 0 0-.42-.467c-.28-.163-.584-.117-.724.14-.163.28-.023.468.21.678.21.187.234.257.187.327-.046.07-.14.093-.28.023a.778.778 0 0 1-.327-.397l-.304.117c.094.233.28.444.49.56ZM24.536 6.162l.187-.257-.304-.21-.21.303.117.094c-.07.117-.187.14-.304.047l-.07.14c.21.14.397.14.584-.117ZM25.4 8.147l.468.49-.164.351.257.257.7-1.612-.233-.233-1.635.607.257.257.35-.117Zm.818-.327-.234.514-.303-.303.537-.21ZM26.335 9.385c-.024.257.046.514.186.701.187.28.491.374.748.187.234-.163.21-.374.093-.7-.093-.258-.116-.351-.023-.398.07-.047.164-.023.234.094.07.116.116.256.116.42h.327a.958.958 0 0 0-.163-.607c-.187-.257-.467-.35-.724-.187-.257.187-.21.397-.094.724.094.257.094.327.024.374-.07.046-.164.023-.257-.094-.117-.14-.14-.327-.117-.514h-.35ZM27.923 11.114c.07.28.047.327-.047.373-.093.047-.163 0-.233-.14-.094-.163-.094-.327-.047-.514l-.327-.07a.965.965 0 0 0 .093.724c.164.304.42.444.701.304.257-.117.257-.35.187-.677-.07-.28-.07-.35.023-.397.07-.047.164 0 .21.116.07.117.07.28.047.444l.327.047a.868.868 0 0 0-.093-.63c-.14-.281-.42-.421-.677-.281-.257.14-.257.374-.164.7ZM28.577 12.165c-.444.14-.677.584-.514 1.051.164.468.63.701 1.051.56.444-.14.678-.583.514-1.05-.14-.49-.607-.701-1.05-.56Zm.14.35a.477.477 0 0 1 .63.304.474.474 0 0 1-.326.607.477.477 0 0 1-.63-.303.458.458 0 0 1 .326-.607ZM29.231 14.338c-.467.07-.77.467-.7.934a.861.861 0 0 0 .373.607l.187-.257a.661.661 0 0 1-.257-.397c-.047-.28.163-.49.42-.537a.467.467 0 0 1 .561.397.531.531 0 0 1-.117.42l.28.187c.117-.163.188-.35.14-.654 0-.467-.42-.747-.887-.7ZM30.278 16.393l-1.611.048.01.35 1.611-.047-.01-.35ZM28.67 17.608l.35.187-.07.677-.373.117-.023.373 1.658-.537.024-.327-1.542-.84-.023.35Zm.655.327.49.257-.537.163.047-.42ZM29.652 19.85l-1.238-.304-.094.35 1.261.28-.116.492.327.07.28-1.308-.304-.07-.116.49ZM28.05 20.834l-.117.33 1.52.535.117-.33-1.52-.535ZM28.484 22.046c-.42-.21-.888-.047-1.122.373a.837.837 0 0 0 .35 1.145c.398.21.888.047 1.122-.397.233-.444.047-.935-.35-1.121Zm.07.98c-.117.258-.42.328-.678.21a.497.497 0 0 1-.233-.653c.14-.257.42-.327.677-.21.257.116.35.397.234.654ZM26.521 23.915l.795.607h-1.262l-.186.257 1.284.957.21-.28-.794-.584 1.238-.023.187-.257-1.285-.958-.186.28ZM19.35 17.724l.514-.163v-.654h-3.363v.654l.514.163c.373.117.373.164.373.444v.888a2.134 2.134 0 0 1-.77 0c-1.215-.187-1.565-1.075-1.565-2.01 0-.536.186-1.004.583-1.4.28-.281.725-.538 1.402-.515.28 0 .63.14.747.234.328.234.42.514.491.84h.911v-1.33s-.864-.585-2.383-.585c-1.19 0-3.55.491-3.55 2.827 0 1.425 1.215 2.546 3.293 2.663 1.449.07 2.43-.35 2.43-.35v-1.262c0-.304.023-.327.373-.444ZM11.035 14.408c-.257-.024-.981-.024-.981-.024H7.087v.654l.49.164c.398.14.398.163.398.467v2.826c0 .304 0 .304-.397.444l-.49.14v.654h3.386v-.654l-.49-.14c-.397-.14-.397-.14-.397-.444v-.677h.794c.747 0 1.331-.07 1.868-.35.514-.28.795-.818.795-1.378-.024-.935-.725-1.542-2.01-1.682Zm.117 2.359c-.094.093-.304.187-.49.233-.468.117-1.075.07-1.099.07v-2.008c.397 0 1.098-.07 1.542.257.21.163.35.42.35.747.024.234-.07.49-.303.7ZM26.124 18.916c-.303-.117-.373-.164-.467-.35l-2.102-4.182h-.864l-2.36 4.275c-.093.163-.163.187-.35.257l-.537.163v.631h2.616v-.63l-.584-.14c-.117-.024-.117-.118-.093-.164 0 0 .07-.14.187-.35h2.172c.117.21.14.256.187.35.046.116-.047.163-.187.21l-.514.14v.63h3.34v-.607c0-.07-.444-.233-.444-.233Zm-4.297-1.051c.35-.654.817-1.589.864-1.635.023.07.467.98.794 1.635h-1.659Z"></path><path fill="#B0B0B6" d="M108.627 24.615h-.561v-.28h1.425v.28h-.56v1.472h-.304v-1.472ZM109.771 24.335h.328l.537.817.537-.817h.327v1.752h-.327v-1.261l-.537.817h-.024l-.537-.817v1.26h-.304v-1.751Z"></path></svg>