<svg xmlns="http://www.w3.org/2000/svg" width="109" height="36" fill="none"><path fill="#B0B0B6" d="m29.938 7.86-4.783 17.484h-2.78l-3.382-12.7-3.431 12.7h-2.78L7.997 7.86h2.755l3.406 12.699 3.431-12.7h2.73l3.457 12.7 3.407-12.7h2.754ZM31.214 7.911l2.755-.225v4.283l-.05 1.602h.1c1.277-.476 2.305-.7 3.557-.7 2.23 0 3.732 1.001 3.732 4.833v7.64h-2.755v-7.415c0-2.304-1.127-2.604-2.404-2.604-.802 0-1.479.175-2.18.376v9.643h-2.755V7.91ZM43.711 13.046h2.755v12.298h-2.755V13.046Zm1.378-4.96c1.428 0 1.653.827 1.653 1.754 0 .926-.3 1.778-1.653 1.778s-1.629-.852-1.629-1.778c0-.927.251-1.754 1.629-1.754ZM48.795 13.046h1.88l.375 1.001h.175c.727-.626 1.878-1.177 3.381-1.177.176 0 .376 0 .576.025V15.6c-.5-.075-1.026-.15-1.552-.15-.752 0-1.353.175-2.08.501v9.393h-2.755V13.046ZM56.359 25.344V7.91l2.755-.225v17.658H56.36ZM81.305 19.257c0-2.329-.377-4.233-2.58-4.233-2.23 0-2.78 1.829-2.78 4.233 0 2.229.45 4.158 2.655 4.158 2.204 0 2.705-1.829 2.705-4.158ZM78.7 12.87c3.907 0 5.41 2.304 5.41 6.387 0 3.832-1.403 6.337-5.46 6.337-4.058 0-5.486-2.505-5.486-6.337 0-4.083 1.628-6.387 5.536-6.387ZM93.658 19.257c0-2.33-.376-4.233-2.58-4.233-2.23 0-2.78 1.829-2.78 4.233 0 2.229.45 4.158 2.655 4.158 2.204 0 2.705-1.829 2.705-4.158Zm-2.605-6.387c3.907 0 5.41 2.304 5.41 6.387 0 3.832-1.402 6.337-5.46 6.337s-5.486-2.505-5.486-6.337c0-4.083 1.628-6.387 5.536-6.387ZM98.247 25.344V7.91l2.755-.225v17.658h-2.755ZM64.124 23.064c.776.025 1.202.05 2.004.05 1.702 0 2.83-.902 2.83-4.484 0-2.454-1.002-3.104-2.805-3.104-.702 0-1.353.124-2.03.35v7.188Zm-2.755-10.019h2.079l.225.902c.827-.45 2.354-1.077 3.732-1.077 2.504 0 4.333 1.829 4.333 6.211 0 4.309-1.93 6.438-5.135 6.438-1.18 0-2.48-.25-2.48-.25v5.635l-2.754.3V13.045Z"></path><path fill="#B0B0B6" d="M75.008 5.489c-2.06-2.387-8.598-.289-15.894 4.76v1.273c6.425-4.567 12.09-6.674 13.711-4.795 2.026 2.347-3.013 10.023-11.255 17.136-8.242 7.113-16.57 10.97-18.594 8.623-1.052-1.219-.194-3.875 2.025-7.142h-1.29c-2.748 4.098-3.778 7.54-2.367 9.175 2.572 2.981 12.192-1.097 21.486-9.116 9.293-8.02 14.75-16.934 12.178-19.914Z"></path></svg>