<svg xmlns="http://www.w3.org/2000/svg" width="90" height="24" fill="none"><g fill="#B0B0B6"><path d="m21.529 16.427-.013-.039 7.843-7.18V5.75H16.776v3.46h7.515l.012.032-7.766 7.186v3.46h12.947v-3.46h-7.956ZM37.21 5.42c-1.452 0-2.635.218-3.55.656a4.657 4.657 0 0 0-2.058 1.804 6.569 6.569 0 0 0-.864 2.61l3.818.537c.138-.814.414-1.39.828-1.73a2.53 2.53 0 0 1 1.641-.507c.775 0 1.337.207 1.686.621.346.414.522.988.522 1.744v.377h-3.67c-1.869 0-3.211.415-4.027 1.243-.817.829-1.224 1.922-1.223 3.281 0 1.392.408 2.428 1.223 3.107.814.68 1.84 1.017 3.074 1.013 1.531 0 2.71-.526 3.534-1.58a5.87 5.87 0 0 0 1.02-2.177h.14l.526 3.46h3.459v-8.761c0-1.81-.477-3.213-1.431-4.207-.955-.994-2.504-1.492-4.649-1.492Zm1.21 10.798c-.55.458-1.269.686-2.164.686-.737 0-1.25-.13-1.537-.388a1.266 1.266 0 0 1-.433-.984 1.294 1.294 0 0 1 .359-.955 1.332 1.332 0 0 1 .984-.358h3.61v.238a2.203 2.203 0 0 1-.82 1.76ZM64.206 5.749H60.12v14.14h4.086V5.749ZM88.337 5.749c-1.155 0-2.065.407-2.73 1.222-.478.586-.841 1.45-1.09 2.596h-.12l-.535-3.818h-3.49v14.138h4.087v-7.25c0-.915.214-1.616.642-2.103.428-.487 1.218-.731 2.37-.731h1.551V5.749h-.685ZM76.316 6.211c-.954-.567-2.158-.85-3.61-.85-2.287 0-4.077.652-5.37 1.954-1.292 1.302-1.939 3.098-1.939 5.386a8.584 8.584 0 0 0 .88 3.996 6.345 6.345 0 0 0 2.507 2.64c1.083.626 2.37.94 3.864.941 1.29 0 2.37-.199 3.235-.596a5.203 5.203 0 0 0 2.06-1.626c.51-.696.889-1.48 1.118-2.312l-3.522-.986a3.263 3.263 0 0 1-.828 1.433c-.398.398-1.064.597-2 .597-1.111 0-1.94-.318-2.485-.955-.396-.46-.644-1.117-.754-1.968h9.643c.039-.398.06-.731.06-1v-.88a7.851 7.851 0 0 0-.715-3.431 5.369 5.369 0 0 0-2.144-2.343Zm-3.728 2.521c1.657 0 2.596.816 2.819 2.446h-5.862a3.366 3.366 0 0 1 .656-1.493c.538-.637 1.333-.954 2.387-.953ZM62.207.05a2.295 2.295 0 0 0-1.671.643 2.218 2.218 0 0 0-.657 1.657 2.247 2.247 0 0 0 2.328 2.326 2.211 2.211 0 0 0 1.657-.656 2.275 2.275 0 0 0 .64-1.67A2.197 2.197 0 0 0 62.21.053L62.207.05ZM53.764 5.362c-1.392 0-2.51.437-3.355 1.311-.626.648-1.085 1.614-1.378 2.9h-.13l-.535-3.818h-3.49v18.196h4.087v-7.495h.149c.124.5.3.986.522 1.45.346.757.913 1.391 1.626 1.82.74.403 1.573.604 2.415.581 1.711 0 3.014-.666 3.909-1.999.895-1.332 1.342-3.192 1.342-5.578 0-2.305-.433-4.11-1.298-5.413-.866-1.303-2.154-1.955-3.864-1.955Zm.415 10.245c-.477.69-1.223 1.036-2.238 1.036a2.637 2.637 0 0 1-2.191-1c-.53-.665-.793-1.574-.791-2.729v-.269c0-1.172.263-2.07.79-2.693.528-.623 1.259-.93 2.192-.924 1.033 0 1.784.328 2.252.984.468.656.702 1.571.702 2.745.003 1.214-.234 2.164-.713 2.85h-.003ZM14.958 16.427H.818v3.464h14.14v-3.464Z"></path></g></svg>